<svg xmlns="http://www.w3.org/2000/svg" width="120" height="24" viewBox="0 0 120 24">
    <path fill="#4BA373" fill-rule="evenodd" d="M61.831 6.157v6.463c0 2.304 1.398 3.753 3.77 3.753 2.272 0 3.795-1.829 3.795-3.92V6.158h2.07V18.25c0 3.944-2.645 5.75-5.765 5.75-3.395 0-5.442-1.616-5.642-4.395h1.972c.275 1.781 1.548 2.566 3.645 2.566 2.047 0 3.82-1.236 3.82-3.944v-2.21c-1.074 1.52-2.597 2.114-4.32 2.138-3.12 0-5.391-2.09-5.391-5.512V6.157h2.046zm-55.44-.26c3.494 0 6.215 1.828 6.215 5.82 0 .309-.025.641-.05.974H2.046c.225 2.28 2.148 3.682 4.494 3.682 1.373 0 3.12-.498 3.919-1.449l1.398 1.164h-.025c-1.298 1.426-3.42 2.091-5.343 2.091C2.671 18.18 0 15.803 0 11.98c0-3.54 2.67-6.083 6.39-6.083zm94.863 0c3.494 0 6.216 1.828 6.216 5.82 0 .309-.026.641-.05.974H96.91c.225 2.28 2.147 3.682 4.493 3.682 1.374 0 3.121-.498 3.92-1.449l1.397 1.164h-.024c-1.298 1.426-3.42 2.091-5.342 2.091-3.82 0-6.49-2.376-6.49-6.2 0-3.54 2.67-6.083 6.39-6.083zm-67.155 0c3.495 0 6.217 1.828 6.217 5.82 0 .309-.026.641-.051.974H29.756c.225 2.28 2.147 3.682 4.493 3.682 1.373 0 3.12-.498 3.92-1.449l1.397 1.164h-.024c-1.299 1.426-3.42 2.091-5.343 2.091-3.819 0-6.49-2.376-6.49-6.2 0-3.54 2.671-6.083 6.39-6.083zm-17.97.26l2.021 4.586 2.072 5.108 2.072-5.085 1.997-4.609h2.272l-5.218 11.76h-2.222l-5.242-11.76h2.247zm60.274 0l3.345 9.694 3.245-9.694h1.673l3.27 9.694 3.32-9.694h2.247l-4.294 11.76h-2.346l-1.698-4.37-1.323-4.277-1.348 4.276-1.673 4.372H78.5L74.13 6.158h2.272zm-27.365-.26c1.049 0 2.047.426 2.796.925l-.924 1.663c-.674-.45-1.273-.665-2.146-.665-1.973 0-3.62 1.378-3.62 3.517v6.557h-2.047V6.157h1.897l.175 1.735c.924-1.545 2.471-1.996 3.87-1.996zm7.307-4.634v16.631h-2.022V1.264h2.022zm56.02 0v16.631h-2.023V1.264h2.022zm6.568 0v16.631h-2.022V1.264h2.022zM6.44 7.654c-2.147 0-3.994 1.14-4.393 3.421h8.537c-.075-2.257-1.723-3.42-4.144-3.42zm94.864 0c-2.147 0-3.994 1.14-4.394 3.421h8.537c-.074-2.257-1.722-3.42-4.143-3.42zm-67.154 0c-2.147 0-3.995 1.14-4.394 3.421h8.537c-.075-2.257-1.722-3.42-4.143-3.42z"/>
</svg>
