<svg xmlns="http://www.w3.org/2000/svg" width="170" height="36" viewBox="0 0 170 36">
    <path fill="#4BA373" fill-rule="evenodd" d="M88.182 9.236v9.694c0 3.456 1.994 5.63 5.377 5.63 3.24 0 5.411-2.743 5.411-5.88V9.236h2.954v18.14c0 5.915-3.773 8.624-8.223 8.624-4.842 0-7.76-2.424-8.046-6.593h2.812c.392 2.673 2.207 3.849 5.198 3.849 2.92 0 5.447-1.853 5.447-5.916v-3.314c-1.53 2.28-3.702 3.171-6.158 3.207-4.451 0-7.69-3.136-7.69-8.268v-9.73h2.918zM9.114 8.844c4.983 0 8.864 2.744 8.864 8.731 0 .463-.035.962-.071 1.461H2.919c.32 3.422 3.062 5.524 6.408 5.524 1.958 0 4.45-.748 5.589-2.173l1.994 1.745h-.036c-1.85 2.139-4.877 3.137-7.619 3.137C3.809 27.27 0 23.705 0 17.967c0-5.31 3.809-9.123 9.114-9.123zm135.292 0c4.984 0 8.865 2.744 8.865 8.731 0 .463-.037.962-.072 1.461H138.21c.32 3.422 3.062 5.524 6.408 5.524 1.958 0 4.45-.748 5.59-2.173l1.993 1.745h-.035c-1.852 2.139-4.878 3.137-7.619 3.137-5.447 0-9.256-3.564-9.256-9.302 0-5.31 3.81-9.123 9.114-9.123zm-95.774 0c4.984 0 8.865 2.744 8.865 8.731 0 .463-.036.962-.072 1.461H42.438c.32 3.422 3.06 5.524 6.407 5.524 1.959 0 4.45-.748 5.59-2.173l1.993 1.745h-.034c-1.852 2.139-4.878 3.137-7.62 3.137-5.446 0-9.256-3.564-9.256-9.302 0-5.31 3.81-9.123 9.114-9.123zm-25.63.392l2.883 6.879 2.955 7.661 2.955-7.626 2.847-6.914h3.24l-7.44 17.64h-3.169l-7.476-17.64h3.204zm85.962 0l4.77 14.54 4.628-14.54h2.386l4.664 14.54 4.735-14.54h3.204l-6.124 17.64h-3.345l-2.422-6.556-1.887-6.415-1.922 6.415-2.386 6.557h-3.31l-6.23-17.641h3.24zm-39.027-.392c1.496 0 2.92.641 3.988 1.39l-1.318 2.494c-.961-.677-1.815-.998-3.061-.998-2.813 0-5.163 2.067-5.163 5.275v9.836h-2.919V9.236h2.706l.25 2.602c1.316-2.317 3.523-2.994 5.517-2.994zm10.42-6.95v24.948h-2.883V1.895h2.884zm79.894 0v24.948h-2.884V1.895h2.884zm9.369 0v24.948h-2.884V1.895h2.884zM9.184 11.482c-3.061 0-5.696 1.71-6.265 5.132h12.176c-.108-3.385-2.457-5.132-5.91-5.132zm135.293 0c-3.062 0-5.696 1.71-6.266 5.132h12.175c-.106-3.385-2.456-5.132-5.909-5.132zm-95.774 0c-3.06 0-5.696 1.71-6.265 5.132h12.175c-.107-3.385-2.457-5.132-5.91-5.132z"/>
</svg>
