<svg xmlns="http://www.w3.org/2000/svg" width="56" height="56" viewBox="0 0 56 56">
    <g fill="none" fill-rule="evenodd">
        <circle cx="28" cy="28" r="28" fill="#EEF5F6"/>
        <g stroke="#007377" stroke-linejoin="round" stroke-width="1.5">
            <g stroke-linecap="round">
                <path d="M26.404 5.46H9.52s-.006-.006 0-.006l2.524-2.083c.8-.658.92-1.854.276-2.669-.645-.814-1.819-.938-2.619-.28l-7.16 5.91C.94 7.96 0 9.11 0 11.064v3.904c0 3.084 2.474 5.612 5.507 5.612h5.501v-.006h3.104c1.02 0 1.88-.814 1.901-1.853.023-.983-.689-1.797-1.615-1.921-.005 0-.005-.006 0-.006h.711c1.037 0 1.919-.865 1.907-1.915-.01-.927-.666-1.69-1.531-1.843-.006 0 0-.005 0-.005h1.124c.975 0 1.82-.747 1.896-1.741.077-1.023-.634-1.888-1.582-2.028-.005 0-.005-.006 0-.006h9.52c1.041 0 1.885-.876 1.857-1.948-.022-1.04-.882-1.848-1.896-1.848zM14.903 16.767L11.355 16.737M17.067 9.241L12.791 9.241M15.485 13.032L11.93 13.032" transform="translate(12 12) translate(1.333 6)"/>
            </g>
            <path fill="#B8DDE1" d="M31.097 24.99c0 1.663-1.271 3.01-2.839 3.01s-2.839-1.347-2.839-3.01c0-1.661 2.84-6.216 2.84-6.216s2.838 4.555 2.838 6.217z" transform="translate(12 12)"/>
        </g>
    </g>
</svg>
