<svg xmlns="http://www.w3.org/2000/svg" width="56" height="56" viewBox="0 0 56 56">
    <g fill="none" fill-rule="evenodd">
        <circle cx="28" cy="28" r="28" fill="#EEF5F6"/>
        <g>
            <g>
                <path fill="#B8DDE1" d="M.667 17.333h30.666v3.334c0 1.104-.895 2-2 2H2.667c-1.105 0-2-.896-2-2v-3.334z" transform="translate(12 12) translate(0 2.667)"/>
                <path stroke="#007377" stroke-linecap="round" stroke-linejoin="round" stroke-width="1.5" d="M29.478 22.667H2.522c-1.025 0-1.855-.856-1.855-1.91V1.907C.667.854 1.497 0 2.522 0h26.956c1.025 0 1.855.854 1.855 1.908v18.848c0 1.055-.83 1.91-1.855 1.91z" transform="translate(12 12) translate(0 2.667)"/>
                <path stroke="#007377" stroke-linecap="round" stroke-linejoin="round" stroke-width="1.25" d="M16.21 20.495c0 .215-.173.39-.386.39-.214 0-.388-.175-.388-.39 0-.217.174-.392.388-.392.213 0 .387.175.387.392z" transform="translate(12 12) translate(0 2.667)"/>
                <path fill="#B8DDE1" stroke="#007377" stroke-linejoin="round" stroke-width="1.5" d="M20.224 28.107L12 28.107 12.876 22.773 19.347 22.773z" transform="translate(12 12) translate(0 2.667)"/>
                <path stroke="#007377" stroke-linecap="round" stroke-linejoin="round" stroke-width="1.25" d="M0.613 17.738L31 17.667" transform="translate(12 12) translate(0 2.667)"/>
                <path stroke="#007377" stroke-linecap="round" stroke-linejoin="round" stroke-width="1.5" d="M10 28L22 28" transform="translate(12 12) translate(0 2.667)"/>
            </g>
            <path fill="#B8DDE1" stroke="#007377" stroke-linejoin="round" stroke-width="1.5" d="M12.601 9.824L10.142 9.824 10.142 7.333 6.46 7.333 6.46 9.824 4 9.824 4 13.554 6.46 13.554 6.46 16.044 10.142 16.044 10.142 13.554 12.601 13.554z" transform="translate(12 12)"/>
            <g stroke="#007377" stroke-linecap="round" stroke-linejoin="round" stroke-width="1.5">
                <path d="M0 6.667L3.705 2.888 7.392 6.06 9.384 3.729 12 0.667" transform="translate(12 12) translate(16 8.667)"/>
                <path d="M10 0L12.667 0 12.667 3.333" transform="translate(12 12) translate(16 8.667)"/>
            </g>
        </g>
    </g>
</svg>
